<svg xmlns="http://www.w3.org/2000/svg" viewBox="0 0 32 32">
  <defs>
    <clipPath id="clip">
      <rect x="2.5" y="2.5" width="27" height="27" rx="5.5"/>
    </clipPath>
  </defs>
  <g clip-path="url(#clip)">
    <rect x="2" y="2" width="11" height="1" fill="#001e78"/>
    <rect x="1" y="3" width="12" height="1" fill="#001e78"/>
    <rect x="1" y="4" width="12" height="1" fill="#001e78"/>
    <rect x="1" y="5" width="12" height="1" fill="#001e78"/>
    <rect x="1" y="6" width="12" height="1" fill="#001e78"/>
    <rect x="1" y="7" width="12" height="1" fill="#001e78"/>
    <rect x="1" y="8" width="12" height="1" fill="#001e78"/>
    <rect x="1" y="9" width="13" height="1" fill="#001e78"/>
    <rect x="1" y="10" width="12" height="1" fill="#001e78"/>
    <rect x="1" y="11" width="10" height="1" fill="#001e78"/>
    <rect x="1" y="12" width="10" height="1" fill="#001e78"/>
    <rect x="1" y="13" width="10" height="1" fill="#001e78"/>
    <rect x="1" y="14" width="10" height="1" fill="#001e78"/>
    <rect x="1" y="15" width="10" height="1" fill="#001e78"/>
    <rect x="1" y="16" width="10" height="1" fill="#001e78"/>
    <rect x="1" y="17" width="10" height="1" fill="#001e78"/>
    <rect x="1" y="18" width="10" height="1" fill="#001e78"/>
    <rect x="1" y="19" width="10" height="1" fill="#001e78"/>
    <rect x="1" y="20" width="10" height="1" fill="#001e78"/>
    <rect x="1" y="21" width="20" height="1" fill="#001e78"/>
    <rect x="1" y="22" width="20" height="1" fill="#001e78"/>
    <rect x="1" y="23" width="20" height="1" fill="#001e78"/>
    <rect x="1" y="24" width="20" height="1" fill="#001e78"/>
    <rect x="1" y="25" width="20" height="1" fill="#001e78"/>
    <rect x="1" y="26" width="20" height="1" fill="#001e78"/>
    <rect x="1" y="27" width="20" height="1" fill="#001e78"/>
    <rect x="1" y="28" width="20" height="1" fill="#001e78"/>
    <rect x="2" y="29" width="19" height="1" fill="#001e78"/>
    <rect x="14" y="2" width="15" height="1" fill="#6e828c"/>
    <rect x="14" y="3" width="16" height="1" fill="#6e828c"/>
    <rect x="14" y="4" width="17" height="1" fill="#6e828c"/>
    <rect x="14" y="5" width="17" height="1" fill="#6e828c"/>
    <rect x="14" y="6" width="17" height="1" fill="#6e828c"/>
    <rect x="14" y="7" width="17" height="1" fill="#6e828c"/>
    <rect x="14" y="8" width="17" height="1" fill="#6e828c"/>
    <rect x="14" y="9" width="17" height="1" fill="#6e828c"/>
    <rect x="21" y="10" width="10" height="1" fill="#6e828c"/>
    <rect x="21" y="11" width="10" height="1" fill="#6e828c"/>
    <rect x="11" y="12" width="20" height="1" fill="#6e828c"/>
    <rect x="12" y="13" width="19" height="1" fill="#6e828c"/>
    <rect x="12" y="14" width="19" height="1" fill="#6e828c"/>
    <rect x="12" y="15" width="19" height="1" fill="#6e828c"/>
    <rect x="12" y="16" width="19" height="1" fill="#6e828c"/>
    <rect x="12" y="17" width="19" height="1" fill="#6e828c"/>
    <rect x="12" y="18" width="19" height="1" fill="#6e828c"/>
    <rect x="12" y="19" width="19" height="1" fill="#6e828c"/>
    <rect x="22" y="20" width="9" height="1" fill="#6e828c"/>
    <rect x="22" y="21" width="9" height="1" fill="#6e828c"/>
    <rect x="22" y="22" width="9" height="1" fill="#6e828c"/>
    <rect x="22" y="23" width="9" height="1" fill="#6e828c"/>
    <rect x="22" y="24" width="9" height="1" fill="#6e828c"/>
    <rect x="22" y="25" width="9" height="1" fill="#6e828c"/>
    <rect x="22" y="26" width="9" height="1" fill="#6e828c"/>
    <rect x="22" y="27" width="9" height="1" fill="#6e828c"/>
    <rect x="22" y="28" width="8" height="1" fill="#6e828c"/>
    <rect x="22" y="29" width="7" height="1" fill="#6e828c"/>
  </g>
</svg>
